<svg xmlns="http://www.w3.org/2000/svg" width="582" height="385" fill="none"><path fill="#FD8721" fill-rule="evenodd" d="M314.618 176.823c6.823-6.862 11.04-16.318 11.04-26.759 0-20.957-16.989-37.947-37.947-37.947-20.958 0-37.947 16.99-37.947 37.947 0 9.994 3.862 19.085 10.176 25.862l-10.015 9.961c-8.851-9.333-14.281-21.944-14.281-35.823 0-28.755 23.311-52.067 52.067-52.067s52.067 23.312 52.067 52.067c0 14.327-5.786 27.302-15.149 36.716l-10.011-9.957z" clip-rule="evenodd"/><path fill="#5995ED" fill-rule="evenodd" d="M337.656 197.982c12.22-12.286 19.772-29.22 19.772-47.918 0-37.528-30.423-67.952-67.952-67.952-37.529 0-67.952 30.424-67.952 67.952 0 18.25 7.194 34.82 18.902 47.028l-10.013 9.958c-14.246-14.762-23.009-34.85-23.009-56.986 0-45.327 36.745-82.072 82.072-82.072 45.327 0 82.072 36.745 82.072 82.072 0 22.583-9.121 43.036-23.881 57.876l-10.011-9.958z" clip-rule="evenodd"/><path fill="#9B28CC" fill-rule="evenodd" d="M361.433 221.631c18.251-18.35 29.53-43.641 29.53-71.567 0-56.05-45.438-101.486-101.487-101.486-56.05 0-101.487 45.437-101.487 101.486 0 27.478 10.92 52.406 28.658 70.679l-10.012 9.958c-20.277-20.827-32.766-49.273-32.766-80.637 0-63.847 51.759-115.606 115.607-115.606s115.607 51.758 115.607 115.606c0 31.811-12.849 60.621-33.639 81.524l-10.011-9.957z" clip-rule="evenodd"/><path fill="#048A81" fill-rule="evenodd" d="M385.463 243.777c24.125-24.254 39.034-57.683 39.034-94.595 0-74.083-60.056-134.14-134.139-134.14-74.083 0-134.139 60.057-134.139 134.14 0 36.912 14.909 70.341 39.034 94.595l-10.011 9.958c-26.664-26.807-43.143-63.756-43.143-104.553 0-81.881 66.378-148.26 148.259-148.26 81.881 0 148.259 66.379 148.259 148.26 0 40.797-16.478 77.746-43.143 104.553l-10.011-9.958z" clip-rule="evenodd"/><path fill="#001A25" d="M134.823 317.956h-14.291c-.261-1.849-.794-3.491-1.599-4.927a12.54 12.54 0 0 0-3.099-3.719c-1.262-1.023-2.719-1.806-4.372-2.35-1.632-.543-3.405-.815-5.319-.815-3.458 0-6.47.859-9.037 2.577-2.567 1.697-4.557 4.177-5.971 7.439-1.414 3.241-2.121 7.178-2.121 11.811 0 4.764.707 8.766 2.12 12.007 1.436 3.241 3.438 5.688 6.004 7.342 2.567 1.653 5.536 2.479 8.907 2.479 1.893 0 3.644-.25 5.253-.75 1.632-.5 3.078-1.229 4.34-2.186a12.603 12.603 0 0 0 3.132-3.557c.848-1.392 1.436-2.98 1.762-4.763l14.291.065c-.37 3.067-1.294 6.025-2.774 8.875-1.457 2.827-3.425 5.361-5.905 7.602-2.458 2.219-5.394 3.98-8.809 5.286-3.394 1.283-7.233 1.925-11.518 1.925-5.96 0-11.29-1.349-15.987-4.046-4.677-2.697-8.375-6.602-11.094-11.714-2.697-5.111-4.046-11.299-4.046-18.565 0-7.286 1.37-13.486 4.112-18.597 2.74-5.112 6.46-9.005 11.158-11.681 4.699-2.697 9.984-4.046 15.857-4.046 3.872 0 7.461.544 10.767 1.632 3.328 1.087 6.275 2.675 8.842 4.763 2.567 2.067 4.655 4.601 6.265 7.603 1.631 3.001 2.675 6.438 3.132 10.31zm27.742 43.427h-15.139l23.068-66.821H188.7l23.035 66.821h-15.139l-16.738-51.551h-.522l-16.771 51.551zm-.946-26.265h35.76v11.028h-35.76v-11.028zm65.509-40.556h17.423l18.402 44.895h.783l18.402-44.895h17.423v66.821h-13.704v-43.492h-.555l-17.292 43.166h-9.332l-17.292-43.33h-.555v43.656h-13.703v-66.821zM354.8 313.78c-.261-2.632-1.381-4.677-3.361-6.134-1.979-1.458-4.666-2.186-8.059-2.186-2.306 0-4.252.326-5.84.978-1.588.631-2.806 1.512-3.654 2.643-.827 1.131-1.24 2.415-1.24 3.85-.044 1.197.206 2.241.75 3.132.566.892 1.338 1.664 2.317 2.317.979.631 2.11 1.185 3.393 1.664 1.283.457 2.654.848 4.111 1.175l6.003 1.435c2.915.653 5.591 1.523 8.027 2.61 2.436 1.088 4.546 2.426 6.33 4.014a16.675 16.675 0 0 1 4.143 5.612c1.001 2.153 1.512 4.622 1.534 7.406-.022 4.089-1.066 7.635-3.133 10.636-2.044 2.98-5.002 5.297-8.874 6.95-3.85 1.631-8.494 2.447-13.932 2.447-5.395 0-10.093-.826-14.095-2.48-3.981-1.653-7.091-4.1-9.332-7.341-2.218-3.262-3.382-7.297-3.491-12.104h13.671c.152 2.24.794 4.111 1.925 5.611 1.153 1.48 2.687 2.6 4.601 3.361 1.936.74 4.122 1.109 6.558 1.109 2.392 0 4.47-.348 6.232-1.044 1.783-.696 3.164-1.664 4.143-2.904.979-1.239 1.469-2.664 1.469-4.274 0-1.501-.446-2.762-1.338-3.784-.87-1.023-2.154-1.893-3.85-2.611-1.675-.717-3.731-1.37-6.167-1.957l-7.276-1.827c-5.633-1.371-10.082-3.513-13.344-6.428-3.263-2.915-4.884-6.841-4.862-11.779-.022-4.045 1.055-7.58 3.23-10.603 2.197-3.024 5.21-5.384 9.038-7.081 3.828-1.696 8.179-2.545 13.051-2.545 4.959 0 9.288.849 12.986 2.545 3.719 1.697 6.612 4.057 8.679 7.081 2.066 3.023 3.132 6.525 3.197 10.506H354.8zm92.712 14.192c0 7.287-1.382 13.486-4.144 18.598-2.741 5.112-6.482 9.016-11.224 11.713-4.72 2.676-10.027 4.014-15.922 4.014-5.938 0-11.268-1.349-15.988-4.046-4.72-2.697-8.45-6.602-11.191-11.714-2.741-5.111-4.111-11.299-4.111-18.565 0-7.286 1.37-13.486 4.111-18.597 2.741-5.112 6.471-9.005 11.191-11.681 4.72-2.697 10.05-4.046 15.988-4.046 5.895 0 11.202 1.349 15.922 4.046 4.742 2.676 8.483 6.569 11.224 11.681 2.762 5.111 4.144 11.311 4.144 18.597zm-14.324 0c0-4.72-.707-8.7-2.121-11.941-1.392-3.241-3.36-5.699-5.905-7.374-2.545-1.675-5.525-2.512-8.94-2.512-3.415 0-6.395.837-8.94 2.512s-4.524 4.133-5.938 7.374c-1.392 3.241-2.088 7.221-2.088 11.941 0 4.721.696 8.701 2.088 11.942 1.414 3.241 3.393 5.699 5.938 7.374 2.545 1.675 5.525 2.512 8.94 2.512 3.415 0 6.395-.837 8.94-2.512s4.513-4.133 5.905-7.374c1.414-3.241 2.121-7.221 2.121-11.942zm32.139 33.411v-66.821h14.128v55.173h28.647v11.648h-42.775z"/></svg>